<?xml version="1.0" encoding="UTF-8" standalone="no"?>
<!DOCTYPE svg PUBLIC "-//W3C//DTD SVG 1.1//EN"
 "http://www.w3.org/Graphics/SVG/1.1/DTD/svg11.dtd">
<!-- Generated by graphviz version 2.44.1 (20200629.0846)
 -->
<!-- Title: G Pages: 1 -->
<svg width="417pt" height="158pt"
 viewBox="0.00 0.00 417.19 158.49" xmlns="http://www.w3.org/2000/svg" xmlns:xlink="http://www.w3.org/1999/xlink">
<g id="graph0" class="graph" transform="scale(1 1) rotate(0) translate(4 154.49)">
<title>G</title>
<polygon fill="white" stroke="transparent" points="-4,4 -4,-154.49 413.19,-154.49 413.19,4 -4,4"/>
<!-- run -->
<g id="node1" class="node">
<title>run</title>
<ellipse fill="none" stroke="black" cx="99.39" cy="-70.62" rx="27" ry="18"/>
<text text-anchor="middle" x="99.39" y="-66.92" font-family="Times New Roman,serif" font-size="14.00">run</text>
</g>
<!-- intr -->
<g id="node2" class="node">
<title>intr</title>
<ellipse fill="none" stroke="black" cx="32.01" cy="-49.64" rx="27" ry="18"/>
<text text-anchor="middle" x="32.01" y="-45.94" font-family="Times New Roman,serif" font-size="14.00">intr</text>
</g>
<!-- run&#45;&#45;intr -->
<g id="edge1" class="edge">
<title>run&#45;&#45;intr</title>
<path fill="none" stroke="black" d="M74.68,-62.93C68.82,-61.1 62.57,-59.16 56.71,-57.33"/>
</g>
<!-- kernel -->
<g id="node4" class="node">
<title>kernel</title>
<ellipse fill="none" stroke="black" cx="206.28" cy="-77.03" rx="32.49" ry="18"/>
<text text-anchor="middle" x="206.28" y="-73.33" font-family="Times New Roman,serif" font-size="14.00">kernel</text>
</g>
<!-- run&#45;&#45;kernel -->
<g id="edge4" class="edge">
<title>run&#45;&#45;kernel</title>
<path fill="none" stroke="black" d="M126.36,-72.24C140.71,-73.1 158.46,-74.16 173.59,-75.07"/>
</g>
<!-- runbl -->
<g id="node3" class="node">
<title>runbl</title>
<ellipse fill="none" stroke="black" cx="29.25" cy="-92.49" rx="29.5" ry="18"/>
<text text-anchor="middle" x="29.25" y="-88.79" font-family="Times New Roman,serif" font-size="14.00">runbl</text>
</g>
<!-- intr&#45;&#45;runbl -->
<g id="edge2" class="edge">
<title>intr&#45;&#45;runbl</title>
<path fill="none" stroke="black" d="M30.82,-68.06C30.69,-70.14 30.55,-72.27 30.41,-74.35"/>
</g>
<!-- runbl&#45;&#45;run -->
<g id="edge3" class="edge">
<title>runbl&#45;&#45;run</title>
<path fill="none" stroke="black" d="M55.37,-84.34C61.75,-82.35 68.56,-80.23 74.87,-78.26"/>
</g>
<!-- zombie -->
<g id="node5" class="node">
<title>zombie</title>
<ellipse fill="none" stroke="black" cx="175.1" cy="-129.85" rx="37.09" ry="18"/>
<text text-anchor="middle" x="175.1" y="-126.15" font-family="Times New Roman,serif" font-size="14.00">zombie</text>
</g>
<!-- kernel&#45;&#45;zombie -->
<g id="edge5" class="edge">
<title>kernel&#45;&#45;zombie</title>
<path fill="none" stroke="black" d="M196.07,-94.32C192.66,-100.1 188.86,-106.54 185.44,-112.33"/>
</g>
<!-- sleep -->
<g id="node6" class="node">
<title>sleep</title>
<ellipse fill="none" stroke="black" cx="278.94" cy="-40.51" rx="29.5" ry="18"/>
<text text-anchor="middle" x="278.94" y="-36.81" font-family="Times New Roman,serif" font-size="14.00">sleep</text>
</g>
<!-- kernel&#45;&#45;sleep -->
<g id="edge6" class="edge">
<title>kernel&#45;&#45;sleep</title>
<path fill="none" stroke="black" d="M230.47,-64.87C238.73,-60.72 247.93,-56.09 256.08,-52"/>
</g>
<!-- runmem -->
<g id="node7" class="node">
<title>runmem</title>
<ellipse fill="none" stroke="black" cx="299.09" cy="-93.32" rx="40.09" ry="18"/>
<text text-anchor="middle" x="299.09" y="-89.62" font-family="Times New Roman,serif" font-size="14.00">runmem</text>
</g>
<!-- kernel&#45;&#45;runmem -->
<g id="edge7" class="edge">
<title>kernel&#45;&#45;runmem</title>
<path fill="none" stroke="black" d="M237.44,-82.5C245.13,-83.85 253.45,-85.31 261.41,-86.7"/>
</g>
<!-- sleep&#45;&#45;runmem -->
<g id="edge13" class="edge">
<title>sleep&#45;&#45;runmem</title>
<path fill="none" stroke="black" d="M285.65,-58.09C287.76,-63.61 290.08,-69.72 292.2,-75.27"/>
</g>
<!-- swap -->
<g id="node8" class="node">
<title>swap</title>
<ellipse fill="none" stroke="black" cx="349.89" cy="-18" rx="29.8" ry="18"/>
<text text-anchor="middle" x="349.89" y="-14.3" font-family="Times New Roman,serif" font-size="14.00">swap</text>
</g>
<!-- sleep&#45;&#45;swap -->
<g id="edge8" class="edge">
<title>sleep&#45;&#45;swap</title>
<path fill="none" stroke="black" d="M304.96,-32.25C310.97,-30.35 317.37,-28.32 323.4,-26.4"/>
</g>
<!-- runswap -->
<g id="node9" class="node">
<title>runswap</title>
<ellipse fill="none" stroke="black" cx="367.59" cy="-77.91" rx="41.69" ry="18"/>
<text text-anchor="middle" x="367.59" y="-74.21" font-family="Times New Roman,serif" font-size="14.00">runswap</text>
</g>
<!-- swap&#45;&#45;runswap -->
<g id="edge9" class="edge">
<title>swap&#45;&#45;runswap</title>
<path fill="none" stroke="black" d="M355.2,-35.97C357.44,-43.56 360.04,-52.36 362.28,-59.95"/>
</g>
<!-- runswap&#45;&#45;runmem -->
<g id="edge11" class="edge">
<title>runswap&#45;&#45;runmem</title>
<path fill="none" stroke="black" d="M330.53,-86.24C330.41,-86.27 330.28,-86.3 330.16,-86.33"/>
</g>
<!-- new -->
<g id="node10" class="node">
<title>new</title>
<ellipse fill="none" stroke="black" cx="360.59" cy="-132.49" rx="27" ry="18"/>
<text text-anchor="middle" x="360.59" y="-128.79" font-family="Times New Roman,serif" font-size="14.00">new</text>
</g>
<!-- runswap&#45;&#45;new -->
<g id="edge10" class="edge">
<title>runswap&#45;&#45;new</title>
<path fill="none" stroke="black" d="M365.26,-96.08C364.51,-101.91 363.69,-108.37 362.94,-114.21"/>
</g>
<!-- new&#45;&#45;runmem -->
<g id="edge12" class="edge">
<title>new&#45;&#45;runmem</title>
<path fill="none" stroke="black" d="M340.8,-119.88C334.9,-116.12 328.38,-111.97 322.28,-108.09"/>
</g>
</g>
</svg>
